<svg width="24" height="24" viewBox="0 0 24 24" fill="none" xmlns="http://www.w3.org/2000/svg">
<path fill-rule="evenodd" clip-rule="evenodd" d="M2 8C2 6.89543 2.89543 6 4 6H17.7778C18.8823 6 19.7778 6.89543 19.7778 8V11.5556H21C21.5523 11.5556 22 12.0033 22 12.5556V16.1111C22 16.6634 21.5523 17.1111 21 17.1111H18.6667V17.1111C18.6667 15.577 17.423 14.3333 15.8889 14.3333C14.3548 14.3333 13.1111 15.577 13.1111 17.1111V17.1111H9.77778V17.1111C9.77778 15.5769 8.53413 14.3333 7 14.3333C5.46588 14.3333 4.22222 15.5769 4.22222 17.1111V17.1111H3C2.44772 17.1111 2 16.6634 2 16.1111V13.5556C2 13.442 2.00947 13.3306 2.02765 13.2222C2.00947 13.1138 2 13.0025 2 12.8889V8ZM8.3889 17.1112C8.3889 17.8782 7.76707 18.5001 7.00001 18.5001C6.23294 18.5001 5.61112 17.8782 5.61112 17.1112C5.61112 16.3441 6.23294 15.7223 7.00001 15.7223C7.76707 15.7223 8.3889 16.3441 8.3889 17.1112ZM15.8889 18.5001C16.656 18.5001 17.2778 17.8782 17.2778 17.1112C17.2778 16.3441 16.656 15.7223 15.8889 15.7223C15.1218 15.7223 14.5 16.3441 14.5 17.1112C14.5 17.8782 15.1218 18.5001 15.8889 18.5001Z" fill="#4C65E4"/>
</svg>
