<svg width="24" height="24" viewBox="0 0 24 24" fill="none" xmlns="http://www.w3.org/2000/svg">
<path fill-rule="evenodd" clip-rule="evenodd" d="M18.8639 3.14645C18.6686 2.95118 17.352 2.95118 17.1568 3.14645L10.0652 10.238C11.268 10.7842 12.2162 11.7929 12.6829 13.0369L19.8651 5.85477C20.0604 5.65951 20.0604 4.34293 19.8651 4.14766L18.8639 3.14645ZM11.8566 13.7278C11.5094 12.468 10.5615 11.4572 9.3403 11.023L7.84651 14.5085C7.66871 14.9234 8.08818 15.3428 8.50304 15.165L11.8566 13.7278Z" fill="#4C65E4"/>
<path fill-rule="evenodd" clip-rule="evenodd" d="M11.3 5.19289L12.3269 6.56213L8.74638 10.1427C8.61145 10.2776 8.5035 10.437 8.42833 10.6124L6.92741 14.1146C6.39402 15.3592 7.65243 16.6176 8.89701 16.0842L12.3991 14.5833C12.5745 14.5081 12.734 14.4001 12.8689 14.2652L15.8605 11.2736L16.8 12.5262C16.9298 12.6993 17 12.9099 17 13.1262V19.7929C17 20.3452 16.5523 20.7929 16 20.7929H5C4.44772 20.7929 4 20.3452 4 19.7929V5.79289C4 5.24061 4.44772 4.79289 5 4.79289H10.5C10.8148 4.79289 11.1111 4.94109 11.3 5.19289ZM15.2544 10.4655L12.933 7.37025L10.8141 9.48919L14.1474 11.5725L15.2544 10.4655ZM10.9281 14.1257L8.98312 11.8565L7.84656 14.5085C7.66876 14.9234 8.08823 15.3428 8.50309 15.165L10.9281 14.1257Z" fill="#4C65E4"/>
</svg>
