<svg width="24" height="24" viewBox="0 0 24 24" fill="none" xmlns="http://www.w3.org/2000/svg">
<path d="M12.8124 8.58623C12.8124 10.643 11.145 12.3104 9.08827 12.3104C7.03149 12.3104 5.36414 10.643 5.36414 8.58623C5.36414 6.52945 7.03149 4.8621 9.08827 4.8621C11.145 4.8621 12.8124 6.52945 12.8124 8.58623Z" fill="#4C65E4"/>
<path fill-rule="evenodd" clip-rule="evenodd" d="M9.0883 12.3103C11.1451 12.3103 12.8124 10.6429 12.8124 8.58617C12.8124 6.52939 11.1451 4.86204 9.0883 4.86204C7.03152 4.86204 5.36417 6.52939 5.36417 8.58617C5.36417 10.6429 7.03152 12.3103 9.0883 12.3103ZM2.96384 17.5033C3.32261 15.32 4.82065 13.5203 6.82727 12.7351C7.49882 13.1018 8.26922 13.3103 9.0883 13.3103C9.90739 13.3103 10.6778 13.1018 11.3493 12.7351C13.3559 13.5203 14.854 15.32 15.2128 17.5033C15.3164 18.134 14.9966 18.7518 14.4386 19.0637C12.9636 19.888 11.1063 20.3793 9.0883 20.3793C7.07031 20.3793 5.21298 19.888 3.73801 19.0637C3.18002 18.7518 2.86019 18.134 2.96384 17.5033Z" fill="#4C65E4"/>
<path fill-rule="evenodd" clip-rule="evenodd" d="M15.0382 18.4698C13.602 18.3376 12.2844 17.9349 11.1889 17.3355C10.6281 17.0287 10.3068 16.4092 10.4187 15.7798C10.6112 14.698 11.1063 13.7208 11.8135 12.9391C13.5847 13.806 14.8822 15.4918 15.2128 17.5033C15.2689 17.8447 15.2009 18.1824 15.0382 18.4698ZM16.1066 18.5172C16.2289 18.1499 16.2666 17.7494 16.1995 17.3411C15.837 15.1349 14.4751 13.2689 12.5954 12.2201C12.9913 11.9183 13.4274 11.6667 13.8945 11.4748C14.5392 11.8385 15.2838 12.0461 16.0768 12.0461C16.8698 12.0461 17.6144 11.8385 18.2591 11.4748C20.0498 12.2104 21.387 13.824 21.7349 15.7798C21.8468 16.4092 21.5255 17.0287 20.9648 17.3355C19.6172 18.0728 17.9336 18.5125 16.1066 18.5172ZM13.5986 9.99554C13.7376 9.55043 13.8124 9.07704 13.8124 8.58617C13.8124 7.62352 13.5245 6.72812 13.0301 5.98139C13.6095 4.89158 14.7565 4.14951 16.0768 4.14951C17.9812 4.14951 19.5251 5.69336 19.5251 7.59778C19.5251 9.50221 17.9812 11.0461 16.0768 11.0461C15.1041 11.0461 14.2255 10.6433 13.5986 9.99554ZM16.0768 11.0461L16.092 11.046L16.0768 11.046L16.0616 11.046L16.0768 11.0461ZM12.6322 7.43823C12.7492 7.79981 12.8124 8.1856 12.8124 8.58617C12.8124 8.62633 12.8118 8.66634 12.8105 8.70619C12.6925 8.35832 12.6285 7.98553 12.6285 7.59778C12.6285 7.5443 12.6298 7.49111 12.6322 7.43823Z" fill="#4C65E4"/>
</svg>
