<svg width="24" height="24" viewBox="0 0 24 24" fill="none" xmlns="http://www.w3.org/2000/svg">
<path fill-rule="evenodd" clip-rule="evenodd" d="M8 4.44C6.44866 4.86177 4.05512 5.16 4.05512 5.16C4.05512 5.16 3.54245 12.0622 5.64413 15.72C7.19926 18.4265 12 21 12 21C12 21 16.8008 18.4265 18.3559 15.72C20.4576 12.0622 19.9449 5.16 19.9449 5.16C19.9449 5.16 17.5513 4.86177 16 4.44C14.4487 4.01823 12 3 12 3C12 3 9.55134 4.01823 8 4.44ZM9 6.12C10.1635 5.79196 12 5 12 5C12 5 13.8365 5.79196 15 6.12C16.1635 6.44804 17.9586 6.68 17.9586 6.68C17.9586 6.68 18.3432 12.0484 16.767 14.8933C15.6006 16.9984 12 19 12 19C12 19 8.39944 16.9984 7.2331 14.8933C5.65684 12.0484 6.04134 6.68 6.04134 6.68C6.04134 6.68 7.83649 6.44804 9 6.12ZM16.7513 7.50942C16.8351 7.52339 16.9162 7.53656 16.9936 7.54889L16.9943 7.58412C17.0053 8.1123 17.0041 8.84465 16.9557 9.6605C16.856 11.3373 16.5643 13.1957 15.8922 14.4087C15.423 15.2556 14.3899 16.174 13.3565 16.9284C12.8588 17.2917 12.3941 17.5935 12.054 17.8044L12 17.8377L11.9461 17.8044C11.6059 17.5935 11.1413 17.2917 10.6435 16.9284C9.61016 16.174 8.57706 15.2556 8.10781 14.4087C7.43575 13.1957 7.14402 11.3373 7.04436 9.66049C6.99587 8.84464 6.99466 8.11229 7.00567 7.58411L7.00643 7.54889C7.08382 7.53656 7.16484 7.52339 7.24869 7.50942C7.85102 7.40908 8.63486 7.26193 9.27136 7.08248C9.90525 6.90376 10.6952 6.60763 11.304 6.36696C11.5731 6.26057 11.8138 6.16221 12 6.085C12.1862 6.16221 12.4269 6.26057 12.6961 6.36695C13.3049 6.60762 14.0948 6.90376 14.7286 7.08248C15.3651 7.26193 16.149 7.40908 16.7513 7.50942Z" fill="#4C65E4"/>
</svg>
