<svg width="24" height="24" viewBox="0 0 24 24" fill="none" xmlns="http://www.w3.org/2000/svg">
<path fill-rule="evenodd" clip-rule="evenodd" d="M14.1428 4.16071V2.25C14.1428 2.11193 14.2548 2 14.3928 2H15.2857H16.1786C16.3166 2 16.4286 2.11193 16.4286 2.25V5.49999C16.4286 5.706 16.1934 5.82359 16.0286 5.69999L14.2429 4.36071C14.1799 4.31349 14.1428 4.2394 14.1428 4.16071ZM11.217 4.08891C11.5878 3.77987 12.1265 3.77987 12.4973 4.08891L19.3544 9.80318C19.7787 10.1567 19.836 10.7873 19.4825 11.2116C19.1289 11.6359 18.4984 11.6932 18.0741 11.3396L11.8571 6.15884L5.64021 11.3396C5.21593 11.6932 4.58537 11.6359 4.2318 11.2116C3.87824 10.7873 3.93556 10.1567 4.35984 9.80318L11.217 4.08891ZM17.5713 13.017C17.5713 12.7132 17.4333 12.4259 17.196 12.2361L12.4818 8.46474C12.1166 8.17256 11.5976 8.17256 11.2324 8.46474L6.51812 12.2361C6.28091 12.4259 6.14282 12.7132 6.14282 13.017V19.5364C6.14282 20.0886 6.59053 20.5364 7.14282 20.5364H16.5713C17.1236 20.5364 17.5713 20.0886 17.5713 19.5364L17.5713 13.017Z" fill="#4C65E4"/>
</svg>
