<svg width="24" height="24" viewBox="0 0 24 24" fill="none" xmlns="http://www.w3.org/2000/svg">
<path fill-rule="evenodd" clip-rule="evenodd" d="M12.1438 12.4483C14.2006 12.4483 15.868 10.7809 15.868 8.72413C15.868 6.66735 14.2006 5 12.1438 5C10.0871 5 8.41972 6.66735 8.41972 8.72413C8.41972 10.7809 10.0871 12.4483 12.1438 12.4483ZM6.01938 17.6412C6.37815 15.4579 7.87619 13.6583 9.88281 12.873C10.5544 13.2398 11.3248 13.4483 12.1438 13.4483C12.9629 13.4483 13.7333 13.2398 14.4049 12.873C16.4115 13.6583 17.9095 15.4579 18.2683 17.6412C18.3719 18.272 18.0521 18.8898 17.4941 19.2016C16.0192 20.026 14.1618 20.5173 12.1438 20.5173C10.1259 20.5173 8.26852 20.026 6.79355 19.2016C6.23557 18.8898 5.91573 18.272 6.01938 17.6412Z" fill="#4C65E4"/>
</svg>
