<svg width="24" height="24" viewBox="0 0 24 24" fill="none" xmlns="http://www.w3.org/2000/svg">
<path d="M7.67481 13.2529C7.15646 12.6177 7.61267 11.6508 8.19241 11.0711C9.36399 9.89949 9.20569 7.84171 7.83886 6.47487C6.47202 5.10804 4.41424 4.94975 3.24266 6.12132C3.22776 6.13622 3.21307 6.15127 3.1986 6.16645C3.11739 6.25167 3.03458 6.33552 2.94912 6.41647C2.92888 6.43564 2.90888 6.4551 2.88911 6.47487C0.741228 8.62276 2.16585 13.5298 6.07109 17.435C9.97633 21.3403 14.8834 22.7649 17.0312 20.617C17.051 20.5972 17.0705 20.5772 17.0896 20.557C17.1706 20.4715 17.2545 20.3887 17.3397 20.3075C17.3549 20.293 17.3699 20.2784 17.3848 20.2635C18.5564 19.0919 18.3981 17.0341 17.0312 15.6673C15.6644 14.3004 13.6066 14.1421 12.4351 15.3137C11.8553 15.8934 10.8884 16.3497 10.2532 15.8313C9.79283 15.4556 9.33981 15.0469 8.89952 14.6066C8.45923 14.1663 8.05047 13.7133 7.67481 13.2529Z" fill="#4C65E4"/>
<path d="M12 10C13.1046 10 14 10.8954 14 12" stroke="#4C65E4" stroke-width="1.5" stroke-linecap="round"/>
<path d="M12 6C15.3137 6 18 8.68629 18 12" stroke="#4C65E4" stroke-width="1.5" stroke-linecap="round"/>
<path d="M12 2C17.5228 2 22 6.47715 22 12" stroke="#4C65E4" stroke-width="1.5" stroke-linecap="round"/>
</svg>
